<?xml version="1.0" encoding="UTF-8"?>
<svg id="Layer_2" data-name="Layer 2" xmlns="http://www.w3.org/2000/svg" viewBox="0 0 911.91 931.11">
  <defs>
    <style>
      .cls-1 {
        fill: #fff;
      }

      .cls-2 {
        fill: #e1f096;
      }
    </style>
  </defs>
  <g id="Layer_1-2" data-name="Layer 1">
    <g>
      <g>
        <path class="cls-2" d="M12.12,635.77c-6.05,29.58,6.21,63.03,43.47,73.76-1.71-29.82-15.4-55.2-43.47-73.76"/>
        <g>
          <path class="cls-2" d="M134.67,659.73c6.09-28.6-5.66-60.24-43.66-71.24,2.85,29.7,16.72,54.24,43.66,71.24Z"/>
          <path class="cls-2" d="M13.92,628.83c34.43,9.3,55.24,46.2,50.41,82.68,33.15,5.23,58.21-16.01,67.71-42.59-32.63-10.36-53.59-46.23-49.05-82.36-1.37-.27-2.67-.59-4.1-.81-33.29-5.08-56.72,16.4-64.97,43.08"/>
        </g>
      </g>
      <polygon class="cls-1" points="242.59 309.06 295.78 255.86 444.52 232.35 569.5 357.33 569.5 514.28 398.2 685.8 163.08 722.97 163.08 544.68 427.64 502.85 427.64 346.11 242.59 375.36 242.59 309.06"/>
      <polygon class="cls-1" points="652.06 42.58 651.41 180.85 910.95 139.95 911.22 0 652.06 42.58"/>
      <polygon class="cls-1" points="751.01 294.98 750.69 433.1 659.56 447.39 610.59 398.42 610.59 307.56 731.11 187.04 855.35 167.39 911.22 223.26 911.91 504.57 793.12 623.36 750.69 630.07 750.69 665.79 545.86 870.62 163.08 931.11 0 767.55 610.59 671.33 610.59 473.93 769.26 448.84 769.26 292.1 751.01 294.98"/>
    </g>
  </g>
</svg>